<?xml version="1.0" encoding="UTF-8" standalone="no"?>
<!-- Created with Inkscape (http://www.inkscape.org/) -->

<svg
   width="64"
   height="64"
   viewBox="0 0 16.933333 16.933333"
   version="1.1"
   id="svg1"
   inkscape:version="1.4.3 (0d15f75, 2025-12-25)"
   sodipodi:docname="Chaotic Brain Logo 4 Part.svg"
   inkscape:export-filename="Chaotic Brain Logo 16x16 icon.png"
   inkscape:export-xdpi="30.33"
   inkscape:export-ydpi="30.33"
   xmlns:inkscape="http://www.inkscape.org/namespaces/inkscape"
   xmlns:sodipodi="http://sodipodi.sourceforge.net/DTD/sodipodi-0.dtd"
   xmlns="http://www.w3.org/2000/svg"
   xmlns:svg="http://www.w3.org/2000/svg">
  <sodipodi:namedview
     id="namedview1"
     pagecolor="#ffffff"
     bordercolor="#999999"
     borderopacity="1"
     inkscape:showpageshadow="0"
     inkscape:pageopacity="0"
     inkscape:pagecheckerboard="0"
     inkscape:deskcolor="#d1d1d1"
     inkscape:document-units="px"
     showgrid="true"
     inkscape:zoom="15.888015"
     inkscape:cx="37.386671"
     inkscape:cy="30.179981"
     inkscape:window-width="2320"
     inkscape:window-height="1354"
     inkscape:window-x="1903"
     inkscape:window-y="30"
     inkscape:window-maximized="0"
     inkscape:current-layer="layer1"
     inkscape:export-bgcolor="#ffffff00">
    <inkscape:grid
       id="grid1"
       units="mm"
       originx="0"
       originy="0"
       spacingx="0.26458333"
       spacingy="0.26458333"
       empcolor="#0099e5"
       empopacity="0.30196078"
       color="#0099e5"
       opacity="0.14901961"
       empspacing="5"
       enabled="true"
       visible="true" />
  </sodipodi:namedview>
  <defs
     id="defs1" />
  <g
     inkscape:label="Layer 1"
     inkscape:groupmode="layer"
     id="layer1">
    <path
       id="path3"
       style="font-weight:bold;font-size:8.99999px;line-height:1.25;font-family:Sans;-inkscape-font-specification:'Sans, Bold';text-align:center;text-anchor:middle;fill:#ff0000;fill-opacity:1;stroke:#1a1a1a;stroke-width:0.2;stroke-dasharray:none;stroke-opacity:1;paint-order:normal"
       d="m 4.3356099,8.5520833 9.947e-4,-0.127879 v 0 C 4.9146109,8.1759246 5.0780558,7.9457647 5.3889817,7.5214321 5.7038938,7.0970992 5.6566309,6.504333 5.6754612,5.8726287 l 0.010571,-0.354636 C 5.694956,5.2185382 5.7056675,5.1183525 5.7634847,4.8881898 5.8312514,4.6624808 5.9329822,4.490823 6.0685141,4.373454 6.2000594,4.2605991 6.3615109,4.183764 6.55285,4.1431368 6.7481751,4.1025081 6.9654688,4.0619736 7.2046426,4.0619736 h 0.6816772 l 0.01348,-2.1098903 H 6.2613018 c -0.7733281,0 -1.3909559,0.223438 -1.8533581,0.6703416 C 3.9495274,3.0648145 3.7670708,3.7162446 3.7200835,4.5726503 l -0.054617,0.995465 C 3.6214468,6.3704327 3.499423,6.8041215 3.1845111,7.1201137 2.8695991,7.4315921 2.4245466,7.5556452 1.7229704,7.5556452 H 1.3045865 L 1.3,8.5495109 l 1.42e-5,0.00257"
       sodipodi:nodetypes="ccscsccccsccscsscsccc" />
    <path
       id="path3-5"
       style="font-weight:bold;font-size:8.99999px;line-height:1.25;font-family:Sans;-inkscape-font-specification:'Sans, Bold';text-align:center;text-anchor:middle;fill:#00ff00;fill-opacity:1;stroke:#000000;stroke-width:0.2;stroke-dasharray:none;stroke-opacity:1;paint-order:normal"
       d="m 4.3356104,8.5520833 9.947e-4,0.127879 v 0 C 4.9146114,8.928242 5.0780563,9.1584019 5.3889822,9.5827345 5.7038943,10.007067 5.6566314,10.599833 5.6754617,11.231538 l 0.010571,0.354636 c 0.00892,0.299454 0.019635,0.39964 0.077452,0.629803 0.067767,0.225709 0.1694975,0.397366 0.3050294,0.514735 0.1315453,0.112855 0.2929968,0.18969 0.4843359,0.230318 0.1953251,0.04063 0.4126188,0.08116 0.6517926,0.08116 h 0.6816777 l 0.01348,2.109893 H 6.2613023 c -0.7733281,0 -1.3909559,-0.223438 -1.8533581,-0.670342 C 3.9495279,14.039352 3.7670713,13.387922 3.720084,12.531516 L 3.6654671,11.536051 C 3.6214473,10.733734 3.4994235,10.300045 3.1845116,9.9840533 2.8695996,9.6725745 2.4245471,9.5485214 1.7229709,9.5485214 H 1.304587 L 1.3,8.5546557 l 1.42e-5,-0.00257"
       sodipodi:nodetypes="ccscsccccsccscsscsccc" />
    <path
       id="path4"
       style="font-weight:bold;font-size:8.99999px;line-height:1.25;font-family:Sans;-inkscape-font-specification:'Sans, Bold';text-align:center;text-anchor:middle;fill:#ffff00;fill-opacity:1;stroke:#1a1a1a;stroke-width:0.2;stroke-dasharray:none;stroke-opacity:1;paint-order:normal"
       d="m 12.564035,8.5521919 5.45e-4,-0.1423596 v 0 c 0.71608,-0.1523166 1.284587,-0.5011311 1.701482,-0.9790881 0.4218,-0.4779568 0.636148,-1.102017 0.636148,-1.8846092 0,-0.5672485 -0.107804,-1.0737724 -0.323607,-1.5202173 C 14.367699,3.5794715 14.075738,3.2089 13.702985,2.9147715 13.271376,2.5681196 12.795791,2.3215879 12.275899,2.1745231 11.760911,2.0274606 11.10579,1.948747 10.31125,1.9537381 l -1.4772036,-0.00155 -0.00267,2.1109077 h 0.2059324 c 0.7945529,0 0.8717839,0.00253 1.2151082,0.00774 0.343326,0.00521 0.660055,0.1152212 0.949428,0.2465384 0.29428,0.131307 0.495453,0.3046357 0.603356,0.5199792 0.112809,0.2205954 0.169025,0.472615 0.169025,0.7562397 0,0.3729132 -0.07198,0.6528012 -0.209306,0.8523884 -0.13217,0.2047779 -0.188839,0.2464364 -0.684123,0.4570453 -0.743432,0.2786492 -0.165723,0.073266 -0.859905,0.3220767 l -0.0031,1.325544 4e-6,0.00154"
       sodipodi:nodetypes="ccscsccccccssccsccccc" />
    <path
       id="path4-9"
       style="font-weight:bold;font-size:8.99999px;line-height:1.25;font-family:Sans;-inkscape-font-specification:'Sans, Bold';text-align:center;text-anchor:middle;fill:#0000ff;fill-opacity:1;stroke:#1a1a1a;stroke-width:0.2;stroke-dasharray:none;stroke-opacity:1;paint-order:normal"
       d="m 12.564035,8.5521919 5.45e-4,0.1423596 v 0 c 0.71608,0.1523166 1.284587,0.5011311 1.701482,0.9790881 0.4218,0.4779574 0.636148,1.1020174 0.636148,1.8846094 0,0.567248 -0.107804,1.073772 -0.323607,1.520217 -0.210904,0.446446 -0.502865,0.817018 -0.875618,1.111146 -0.431609,0.346652 -0.907194,0.593184 -1.427086,0.740249 -0.514988,0.147062 -1.170109,0.225776 -1.964649,0.220785 l -1.4772036,0.0015 -0.00267,-2.110908 h 0.2059324 c 0.7945539,0 0.8717849,-0.0025 1.2151092,-0.0077 0.343326,-0.0052 0.660055,-0.115221 0.949428,-0.246538 0.29428,-0.131307 0.495452,-0.304636 0.603355,-0.519979 0.112809,-0.220596 0.169025,-0.472615 0.169025,-0.75624 0,-0.372913 -0.07198,-0.652801 -0.209306,-0.852388 -0.13217,-0.204778 -0.188838,-0.246437 -0.684122,-0.457046 -0.743433,-0.278649 -0.165723,-0.07327 -0.859905,-0.3220765 l -0.0031,-1.325544 4e-6,-0.00154"
       sodipodi:nodetypes="ccscsccccccssccsccccc" />
  </g>
</svg>
